<svg xmlns="http://www.w3.org/2000/svg" viewBox="0 0 512 512" fill="none">
  <g fill="#687949">
    <path d="M244 229C225 172 229 99 255 32c27 65 30 139 12 197-6 18-17 18-23 0Z"/>
    <path d="M281 235c27-53 78-105 143-135-28 65-77 119-131 147-17 9-22 5-12-12Z"/>
    <path d="M288 257c58-16 132-9 194 23-68 20-142 14-197-10-18-8-16-14 3-13Z"/>
    <path d="M280 280c52 30 101 85 126 152-63-33-114-86-138-142-8-18-4-22 12-10Z"/>
    <path d="M253 287c13 59 2 132-34 193-16-69-6-142 21-196 9-17 15-15 13 3Z"/>
    <path d="M231 277c-34 49-92 94-161 113 38-60 95-106 152-125 18-6 22-2 9 12Z"/>
    <path d="M224 252c-59 8-132-10-189-51 70-10 142 7 193 38 16 10 14 16-4 13Z"/>
    <path d="M235 232c-46-39-83-102-94-172 55 44 94 106 106 165 4 19 0 22-12 7Z"/>
  </g>
</svg>
